<svg width="28" height="30" viewBox="0 0 28 30" fill="none" xmlns="http://www.w3.org/2000/svg">
<path d="M19.3332 21.2131C19.3332 18.8131 16.9465 16.8665 13.9999 16.8665C11.0532 16.8665 8.66655 18.8131 8.66655 21.2131M26.1065 10.4399V19.5598C26.1065 21.0532 25.3065 22.4399 24.0132 23.1999L16.0932 27.7732C14.7999 28.5199 13.1999 28.5199 11.8932 27.7732L3.97322 23.1999C2.67988 22.4532 1.87988 21.0665 1.87988 19.5598V10.4399C1.87988 8.94655 2.67988 7.55983 3.97322 6.79983L11.8932 2.2265C13.1865 1.47984 14.7865 1.47984 16.0932 2.2265L24.0132 6.79983C25.3065 7.55983 26.1065 8.93322 26.1065 10.4399ZM17.1065 10.5598C17.1065 12.2756 15.7156 13.6665 13.9999 13.6665C12.2841 13.6665 10.8932 12.2756 10.8932 10.5598C10.8932 8.84405 12.2841 7.45321 13.9999 7.45321C15.7156 7.45321 17.1065 8.84405 17.1065 10.5598Z" stroke="white" stroke-width="2.5" stroke-linecap="round" stroke-linejoin="round"/>
</svg>
